# Blender 4.1.1
# www.blender.org
o door_f
v 0.181128 -0.022597 0.178933
v 0.231685 -0.022597 0.178933
v 0.181128 -0.022597 -0.185129
v 0.181128 -0.073007 0.178934
v 0.181128 -0.022597 0.215247
v 0.181128 0.123453 0.178933
v 0.231685 0.123453 0.178933
v 0.181128 0.123453 0.215247
v 0.181128 0.161968 0.178933
v 0.181128 0.123453 -0.185129
v 0.181128 0.123453 -0.224154
v 0.181128 0.161968 -0.185129
v 0.231685 0.123453 -0.185129
v 0.231685 -0.022597 -0.185129
v 0.231685 0.123453 -0.224154
v 0.231685 0.161968 -0.185129
v 0.231685 0.161968 -0.224154
v 0.231685 0.161968 0.178933
v 0.231685 0.161968 0.215247
v 0.231685 0.123453 0.215247
v 0.181128 0.161968 0.215247
v 0.231685 -0.022597 0.215247
v 0.231685 -0.073007 0.215247
v 0.231685 -0.073007 0.178934
v 0.181128 -0.073007 0.215247
v 0.231685 -0.073007 -0.185129
v 0.181128 -0.073007 -0.185129
v 0.231685 -0.073007 -0.224154
v 0.231685 -0.022597 -0.224154
v 0.181128 -0.073007 -0.224154
v 0.181128 -0.022597 -0.224154
v 0.181128 0.161968 -0.224154
v -0.778830 -1.029482 0.076426
v -0.778830 0.933877 0.076426
v -0.778830 -1.029482 -0.071786
v -0.709608 -1.093123 0.067349
v 0.351530 -1.029482 0.076426
v -0.397592 -0.248794 0.076426
v 0.028255 -0.248794 0.076426
v -0.397592 -0.248794 0.137620
v -0.397592 0.153189 0.076426
v 0.028255 0.153189 0.076426
v -0.397592 0.153189 0.137620
v 0.028255 0.153189 0.137620
v 0.028255 -0.248794 0.137620
v 0.351530 0.933877 0.076426
v 0.351530 0.933877 -0.071786
v 0.319774 1.000300 0.072262
v -0.747075 1.000300 0.072262
v 0.319774 1.000300 -0.067622
v -0.747075 1.000300 -0.067622
v -0.778830 0.933877 -0.071786
v -0.416374 0.154331 -0.071786
v -0.010927 0.154331 -0.071786
v -0.416374 0.154331 -0.121334
v -0.416374 -0.249937 -0.071786
v -0.010927 -0.249937 -0.071786
v -0.416374 -0.249937 -0.121333
v -0.010927 -0.249937 -0.121333
v -0.010927 0.154331 -0.121334
v 0.351530 -1.029482 -0.071786
v 0.282307 -1.093123 -0.062709
v -0.709608 -1.093123 -0.062709
v 0.282307 -1.093123 0.067349
vn -0.0000 -0.0000 -1.0000
vn -0.0000 1.0000 -0.0000
vn -1.0000 -0.0000 -0.0000
vn -0.0000 -1.0000 -0.0000
vn -0.0000 -0.0000 1.0000
vn 1.0000 -0.0000 -0.0000
vn -0.6768 -0.7362 -0.0000
vn -0.0000 -0.1412 0.9900
vn 0.9022 0.4313 -0.0000
vn -0.0000 0.0626 0.9980
vn -0.0000 0.0626 -0.9980
vn -0.9022 0.4313 -0.0000
vn 0.6768 -0.7362 -0.0000
vn -0.0000 -0.1412 -0.9900
vt 0.006472 0.996053
vt 0.005878 0.996053
vt 0.005878 0.994336
vt 0.006472 0.994336
vt 0.998171 0.097724
vt 0.998171 0.098319
vt 0.993889 0.098319
vt 0.993889 0.097724
vt 0.298256 0.985271
vt 0.298848 0.985271
vt 0.298848 0.989553
vt 0.298256 0.989553
vt 0.298256 0.984844
vt 0.298848 0.984844
vt 0.300565 0.984844
vt 0.300565 0.985271
vt 0.998170 0.110669
vt 0.993889 0.110669
vt 0.993889 0.110075
vt 0.998170 0.110075
vt 0.301018 0.984844
vt 0.301018 0.985271
vt 0.301018 0.989553
vt 0.300565 0.989553
vt 0.995607 0.983780
vt 0.995607 0.984374
vt 0.993889 0.984374
vt 0.993889 0.983780
vt 0.298848 0.990012
vt 0.300565 0.990012
vt 0.301018 0.990012
vt 0.294141 0.989553
vt 0.294141 0.990012
vt 0.292424 0.990012
vt 0.292424 0.989553
vt 0.291972 0.990012
vt 0.291972 0.989553
vt 0.291972 0.985271
vt 0.292424 0.985271
vt 0.457032 0.989585
vt 0.456438 0.989585
vt 0.456438 0.985303
vt 0.457032 0.985303
vt 0.456438 0.984844
vt 0.457032 0.984844
vt 0.292424 0.984844
vt 0.291972 0.984844
vt 0.457032 0.990012
vt 0.456438 0.990012
vt 0.994342 0.516579
vt 0.994342 0.517173
vt 0.993889 0.517173
vt 0.993889 0.516579
vt 0.294141 0.984844
vt 0.294141 0.985271
vt 0.996060 0.516579
vt 0.996060 0.517173
vt 0.294733 0.985271
vt 0.294733 0.984844
vt 0.996653 0.516579
vt 0.996653 0.517173
vt 0.465266 0.985271
vt 0.464672 0.985271
vt 0.464672 0.984844
vt 0.465266 0.984844
vt 0.294733 0.989553
vt 0.465266 0.989552
vt 0.464672 0.989552
vt 0.294733 0.990012
vt 0.465266 0.990011
vt 0.464672 0.990011
vt 0.996652 0.529524
vt 0.996059 0.529524
vt 0.996059 0.528930
vt 0.996652 0.528930
vt 0.298256 0.990012
vt 0.994342 0.529524
vt 0.994342 0.528930
vt 0.993889 0.529524
vt 0.993889 0.528930
vt 0.824215 0.681571
vt 0.824215 0.704663
vt 0.819733 0.695481
vt 0.819733 0.690753
vt 0.006937 0.828703
vt 0.006937 0.851790
vt 0.005195 0.851790
vt 0.005195 0.828703
vt 0.919600 0.229932
vt 0.921342 0.229932
vt 0.921250 0.230746
vt 0.919722 0.230746
vt 0.810927 0.704663
vt 0.823402 0.705413
vt 0.811741 0.705413
vt 0.814727 0.695481
vt 0.485631 0.989853
vt 0.485631 0.984844
vt 0.486350 0.984844
vt 0.486350 0.989853
vt 0.968436 0.989571
vt 0.968436 0.984844
vt 0.969155 0.984844
vt 0.969155 0.989571
vt 0.810927 0.681571
vt 0.814727 0.690753
vt 0.473625 0.984844
vt 0.473625 0.989853
vt 0.472905 0.989853
vt 0.472905 0.984844
vt 0.325357 0.984844
vt 0.330082 0.984844
vt 0.330082 0.989853
vt 0.325357 0.989853
vt 0.973397 0.984844
vt 0.973397 0.989571
vt 0.972678 0.989571
vt 0.972678 0.984844
vt 0.010460 0.851840
vt 0.012202 0.851840
vt 0.012153 0.852629
vt 0.010508 0.852629
vt 0.012202 0.828752
vt 0.010460 0.828752
vt 0.811300 0.680790
vt 0.823842 0.680790
vt 0.900181 0.669988
vt 0.900181 0.682536
vt 0.898537 0.682536
vt 0.898537 0.669988
vt 0.857537 0.172851
vt 0.844249 0.172851
vt 0.844622 0.172071
vt 0.857164 0.172071
vt 0.006889 0.852580
vt 0.005244 0.852580
vt 0.844249 0.195938
vt 0.848510 0.182017
vt 0.848510 0.186771
vt 0.853276 0.182017
vt 0.535313 0.989613
vt 0.535313 0.984844
vt 0.535895 0.984844
vt 0.535895 0.989613
vt 0.551732 0.989598
vt 0.551732 0.984844
vt 0.552315 0.984844
vt 0.552315 0.989598
vt 0.857537 0.195938
vt 0.853276 0.186771
vt 0.540000 0.984844
vt 0.540000 0.989613
vt 0.539418 0.989613
vt 0.539418 0.984844
vt 0.489873 0.984844
vt 0.494624 0.984844
vt 0.494624 0.989613
vt 0.489873 0.989613
vt 0.559943 0.989598
vt 0.559943 0.984844
vt 0.560525 0.984844
vt 0.560525 0.989598
vt 0.921342 0.243228
vt 0.919600 0.243228
vt 0.919722 0.242413
vt 0.921250 0.242413
vt 0.856723 0.196689
vt 0.845062 0.196689
s 1
f 2/1/1 1/2/1 6/3/1 7/4/1
f 1/5/2 2/6/2 14/7/2 3/8/2
f 4/9/3 1/10/3 3/11/3 27/12/3
f 1/10/3 4/9/3 25/13/3 5/14/3
f 1/10/3 5/14/3 8/15/3 6/16/3
f 13/17/4 7/18/4 6/19/4 10/20/4
f 6/16/3 8/15/3 21/21/3 9/22/3
f 12/23/3 10/24/3 6/16/3 9/22/3
f 3/25/5 14/26/5 13/27/5 10/28/5
f 31/29/3 3/11/3 10/24/3 11/30/3
f 11/30/3 10/24/3 12/23/3 32/31/3
f 14/32/6 29/33/6 15/34/6 13/35/6
f 13/35/6 15/34/6 17/36/6 16/37/6
f 13/35/6 16/37/6 18/38/6 7/39/6
f 9/40/2 18/41/2 16/42/2 12/43/2
f 12/43/2 16/42/2 17/44/2 32/45/2
f 20/46/6 7/39/6 18/38/6 19/47/6
f 18/41/2 9/40/2 21/48/2 19/49/2
f 8/50/5 20/51/5 19/52/5 21/53/5
f 22/54/6 2/55/6 7/39/6 20/46/6
f 5/56/5 22/57/5 20/51/5 8/50/5
f 24/58/6 2/55/6 22/54/6 23/59/6
f 25/60/5 23/61/5 22/57/5 5/56/5
f 4/62/4 24/63/4 23/64/4 25/65/4
f 2/55/6 24/58/6 26/66/6 14/32/6
f 24/63/4 4/62/4 27/67/4 26/68/4
f 14/32/6 26/66/6 28/69/6 29/33/6
f 26/68/4 27/67/4 30/70/4 28/71/4
f 30/72/1 31/73/1 29/74/1 28/75/1
f 27/12/3 3/11/3 31/29/3 30/76/3
f 29/74/1 31/73/1 11/77/1 15/78/1
f 15/78/1 11/77/1 32/79/1 17/80/1
f 34/81/5 33/82/5 38/83/5 41/84/5
f 33/85/3 34/86/3 52/87/3 35/88/3
f 33/89/7 35/90/7 63/91/7 36/92/7
f 37/93/8 33/82/8 36/94/8 64/95/8
f 33/82/5 37/93/5 39/96/5 38/83/5
f 38/97/4 39/98/4 45/99/4 40/100/4
f 41/101/3 38/102/3 40/103/3 43/104/3
f 46/105/5 34/81/5 41/84/5 42/106/5
f 42/107/2 41/108/2 43/109/2 44/110/2
f 45/111/5 44/112/5 43/113/5 40/114/5
f 39/115/6 42/116/6 44/117/6 45/118/6
f 37/93/5 46/105/5 42/106/5 39/96/5
f 46/119/9 47/120/9 50/121/9 48/122/9
f 61/123/6 47/120/6 46/119/6 37/124/6
f 34/81/10 46/105/10 48/125/10 49/126/10
f 50/127/2 51/128/2 49/129/2 48/130/2
f 47/131/11 52/132/11 51/133/11 50/134/11
f 52/87/12 34/86/12 49/135/12 51/136/12
f 35/137/1 52/132/1 53/138/1 56/139/1
f 52/132/1 47/131/1 54/140/1 53/138/1
f 53/141/2 54/142/2 60/143/2 55/144/2
f 56/145/3 53/146/3 55/147/3 58/148/3
f 61/149/1 35/137/1 56/139/1 57/150/1
f 57/151/4 56/152/4 58/153/4 59/154/4
f 58/155/1 55/156/1 60/157/1 59/158/1
f 54/159/6 57/160/6 59/161/6 60/162/6
f 47/131/1 61/149/1 57/150/1 54/140/1
f 61/163/13 37/164/13 64/165/13 62/166/13
f 35/137/14 61/149/14 62/167/14 63/168/14
f 63/91/4 62/166/4 64/165/4 36/92/4
