# Blender 4.1.1
# www.blender.org
o light_f
v -0.357182 -0.040290 0.357183
v -0.357182 -0.040290 -0.357182
v -0.338485 -0.078417 0.338485
v 0.357182 -0.040290 0.357183
v 0.357182 -0.040290 -0.357182
v 0.338485 -0.078417 0.338485
v 0.338485 -0.078416 -0.338485
v 0.220144 -0.121295 0.220144
v -0.220144 -0.121295 0.220144
v 0.220144 -0.121294 -0.220144
v -0.220144 -0.121294 -0.220144
v -0.338485 -0.078416 -0.338485
vn 0.8979 0.4403 -0.0000
vn -0.0000 0.4403 -0.8979
vn -0.8979 0.4403 -0.0000
vn -0.3990 0.9170 -0.0000
vn -0.0000 0.9170 -0.3990
vn -0.0000 0.9170 0.3990
vn -0.0000 1.0000 -0.0000
vn 0.3990 0.9170 -0.0000
vn -0.0000 0.4403 0.8979
vt 0.236731 0.590864
vt 0.019158 0.596365
vt 0.031882 0.582404
vt 0.223322 0.578647
vt 0.019158 0.374758
vt 0.033194 0.388855
vt 0.236411 0.377625
vt 0.224293 0.389725
vt 0.206304 0.407369
vt 0.050978 0.407011
vt 0.050737 0.563419
vt 0.206345 0.561823
vt 0.188493 0.425167
vt 0.188609 0.544139
vt 0.068678 0.545341
vt 0.068926 0.424873
s 1
f 2/1/1 1/2/1 3/3/1 12/4/1
f 1/2/2 4/5/2 6/6/2 3/3/2
f 4/5/3 5/7/3 7/8/3 6/6/3
f 6/6/4 7/8/4 10/9/4 8/10/4
f 3/3/5 6/6/5 8/10/5 9/11/5
f 7/8/6 12/4/6 11/12/6 10/9/6
f 10/13/7 11/14/7 9/15/7 8/16/7
f 12/4/8 3/3/8 9/11/8 11/12/8
f 5/7/9 2/1/9 12/4/9 7/8/9
