# Blender 4.1.1
# www.blender.org
o outsideDoor2
v 0.149579 -0.031751 -0.092505
v 0.149579 -0.031751 -0.144457
v -0.153827 -0.031751 -0.092505
v 0.149579 -0.083552 -0.092505
v 0.179842 -0.031751 -0.092505
v 0.149579 0.118330 -0.092505
v 0.149579 0.118330 -0.144457
v 0.179842 0.118330 -0.092505
v 0.149579 0.157908 -0.092505
v -0.153827 0.118330 -0.092505
v -0.186351 0.118330 -0.092505
v -0.153827 0.157908 -0.092505
v -0.153827 0.118330 -0.144457
v -0.153827 -0.031751 -0.144457
v -0.186351 0.118330 -0.144457
v -0.153827 0.157908 -0.144457
v -0.186351 0.157908 -0.144457
v 0.149579 0.157908 -0.144457
v 0.179842 0.157908 -0.144457
v 0.179842 0.118330 -0.144457
v 0.179842 0.157908 -0.092505
v 0.179842 -0.031751 -0.144457
v 0.179842 -0.083552 -0.144457
v 0.149579 -0.083552 -0.144457
v 0.179842 -0.083552 -0.092505
v -0.153827 -0.083552 -0.144457
v -0.153827 -0.083552 -0.092505
v -0.186351 -0.083552 -0.144457
v -0.186351 -0.031751 -0.144457
v -0.186351 -0.083552 -0.092505
v -0.186351 -0.031751 -0.092505
v -0.186351 0.157908 -0.092505
v 0.064150 -1.066426 0.893948
v -0.059368 -1.066426 0.893948
v 0.056586 -1.131824 0.822815
v 0.064150 -1.066426 -0.267609
v 0.064150 -0.621602 0.893948
v 0.064150 -0.621602 -0.267609
v 0.064150 0.642907 0.893948
v -0.059368 -0.621602 0.893948
v -0.059368 0.642907 0.893948
v -0.059368 -0.621602 -0.267609
v -0.059368 0.642907 -0.267609
v -0.036101 -0.597212 -0.294141
v -0.059368 -1.066426 -0.267609
v -0.051804 -1.131824 -0.259823
v -0.036101 -1.021462 -0.294141
v -0.031386 -1.083835 -0.286715
v 0.040883 -1.021462 -0.294141
v 0.036168 -1.083835 -0.286715
v 0.040883 -0.597212 -0.294141
v 0.040883 0.608810 -0.294142
v 0.040883 0.902770 -0.294142
v -0.036101 0.608810 -0.294142
v 0.064150 0.642907 -0.267609
v 0.064150 0.951122 -0.267610
v 0.064150 0.951123 0.893948
v 0.051095 1.015390 -0.272180
v 0.060680 1.019379 0.861316
v -0.046313 1.015390 -0.272180
v 0.032746 0.964065 -0.298500
v -0.027964 0.964065 -0.298500
v -0.036101 0.902770 -0.294142
v -0.059368 0.951122 -0.267610
v -0.059368 0.951123 0.893948
v -0.055898 1.019379 0.861316
v 0.056586 -1.131824 -0.259823
v -0.051804 -1.131824 0.822815
vn -1.0000 -0.0000 -0.0000
vn -0.0000 1.0000 -0.0000
vn -0.0000 -0.0000 1.0000
vn -0.0000 -1.0000 -0.0000
vn 1.0000 -0.0000 -0.0000
vn -0.0000 -0.0000 -1.0000
vn -0.0000 -0.7362 0.6768
vn 0.9934 -0.1149 -0.0000
vn -0.7518 -0.0000 -0.6593
vn -0.9934 -0.1149 -0.0000
vn -0.6199 -0.1512 -0.7700
vn -0.0000 -0.1182 -0.9930
vn 0.6199 -0.1512 -0.7700
vn 0.7518 -0.0000 -0.6593
vn 0.9925 0.1225 -0.0044
vn 0.7142 0.0710 -0.6963
vn -0.0000 1.0000 -0.0035
vn -0.0000 0.4563 -0.8898
vn -0.0000 -0.0709 -0.9975
vn -0.7142 0.0710 -0.6963
vn -0.9925 0.1225 -0.0044
vn -0.0000 0.4313 0.9022
vn -0.0000 -0.4889 -0.8724
vt 0.993889 0.963724
vt 0.993889 0.963113
vt 0.995654 0.963113
vt 0.995654 0.963724
vt 0.993889 0.438943
vt 0.993889 0.438333
vt 0.997458 0.438333
vt 0.997458 0.438943
vt 0.990066 0.988795
vt 0.989457 0.988795
vt 0.989457 0.985226
vt 0.990066 0.985226
vt 0.990066 0.989151
vt 0.989457 0.989151
vt 0.987693 0.989151
vt 0.987693 0.988795
vt 0.997458 0.463743
vt 0.993889 0.463743
vt 0.993889 0.463132
vt 0.997458 0.463132
vt 0.987227 0.989151
vt 0.987227 0.988795
vt 0.987227 0.985226
vt 0.987693 0.985226
vt 0.993889 0.959591
vt 0.993889 0.958980
vt 0.995654 0.958980
vt 0.995654 0.959591
vt 0.989457 0.984844
vt 0.987693 0.984844
vt 0.987227 0.984844
vt 0.994272 0.023073
vt 0.993889 0.023073
vt 0.993889 0.021310
vt 0.994272 0.021310
vt 0.993889 0.020844
vt 0.994272 0.020844
vt 0.997840 0.020844
vt 0.997840 0.021310
vt 0.994245 0.077669
vt 0.994245 0.077058
vt 0.997814 0.077058
vt 0.997814 0.077669
vt 0.998196 0.077058
vt 0.998196 0.077669
vt 0.998196 0.021310
vt 0.998196 0.020844
vt 0.993889 0.077669
vt 0.993889 0.077058
vt 0.996263 0.492676
vt 0.996263 0.492065
vt 0.996729 0.492065
vt 0.996729 0.492676
vt 0.998196 0.023073
vt 0.997840 0.023073
vt 0.994498 0.492676
vt 0.994498 0.492065
vt 0.997840 0.023682
vt 0.998196 0.023682
vt 0.993889 0.492676
vt 0.993889 0.492065
vt 0.994245 0.093591
vt 0.994245 0.094202
vt 0.993889 0.094202
vt 0.993889 0.093591
vt 0.994272 0.023682
vt 0.997814 0.093591
vt 0.997814 0.094202
vt 0.993889 0.023682
vt 0.998196 0.093591
vt 0.998196 0.094202
vt 0.993889 0.471398
vt 0.994498 0.471398
vt 0.994498 0.472009
vt 0.993889 0.472009
vt 0.990066 0.984844
vt 0.996263 0.471398
vt 0.996263 0.472009
vt 0.996729 0.471398
vt 0.996729 0.472009
vt 0.844249 0.224742
vt 0.844249 0.219510
vt 0.845701 0.219510
vt 0.845701 0.224742
vt 0.845988 0.691608
vt 0.847440 0.691608
vt 0.847352 0.692459
vt 0.846077 0.692459
vt 0.172085 0.824018
vt 0.158429 0.823988
vt 0.159267 0.823223
vt 0.171995 0.823251
vt 0.172073 0.829249
vt 0.158418 0.829219
vt 0.172041 0.844119
vt 0.158385 0.844088
vt 0.844249 0.204637
vt 0.845701 0.204637
vt 0.211038 0.842521
vt 0.211005 0.827652
vt 0.224661 0.827621
vt 0.224693 0.842491
vt 0.211049 0.847752
vt 0.224705 0.847722
vt 0.224973 0.828015
vt 0.225004 0.842197
vt 0.225015 0.847186
vt 0.224615 0.848489
vt 0.211887 0.848517
vt 0.843227 0.138148
vt 0.843138 0.137376
vt 0.843411 0.136841
vt 0.843467 0.137576
vt 0.844316 0.136841
vt 0.844261 0.137576
vt 0.843411 0.131852
vt 0.844316 0.131852
vt 0.844590 0.137376
vt 0.844501 0.138148
vt 0.172395 0.824554
vt 0.172384 0.829543
vt 0.172353 0.843724
vt 0.843411 0.117670
vt 0.844316 0.117670
vt 0.172033 0.847743
vt 0.172345 0.847181
vt 0.843411 0.114213
vt 0.844316 0.114213
vt 0.158377 0.847713
vt 0.172084 0.848502
vt 0.158759 0.848517
vt 0.172395 0.847904
vt 0.920720 0.001761
vt 0.920833 0.015094
vt 0.919462 0.015094
vt 0.919575 0.001761
vt 0.843291 0.112895
vt 0.844436 0.112895
vt 0.844221 0.113491
vt 0.843507 0.113491
vt 0.224653 0.823997
vt 0.224705 0.823238
vt 0.225015 0.823836
vt 0.224965 0.824559
vt 0.210998 0.824027
vt 0.211379 0.823223
vt 0.845701 0.201011
vt 0.844249 0.201011
vt 0.844290 0.200211
vt 0.845660 0.200211
vt 0.847352 0.705191
vt 0.846077 0.705191
s 1
f 2/1/1 1/2/1 6/3/1 7/4/1
f 1/5/2 2/6/2 14/7/2 3/8/2
f 4/9/3 1/10/3 3/11/3 27/12/3
f 1/10/3 4/9/3 25/13/3 5/14/3
f 1/10/3 5/14/3 8/15/3 6/16/3
f 13/17/4 7/18/4 6/19/4 10/20/4
f 6/16/3 8/15/3 21/21/3 9/22/3
f 12/23/3 10/24/3 6/16/3 9/22/3
f 3/25/5 14/26/5 13/27/5 10/28/5
f 31/29/3 3/11/3 10/24/3 11/30/3
f 11/30/3 10/24/3 12/23/3 32/31/3
f 14/32/6 29/33/6 15/34/6 13/35/6
f 13/35/6 15/34/6 17/36/6 16/37/6
f 13/35/6 16/37/6 18/38/6 7/39/6
f 9/40/2 18/41/2 16/42/2 12/43/2
f 12/43/2 16/42/2 17/44/2 32/45/2
f 20/46/6 7/39/6 18/38/6 19/47/6
f 18/41/2 9/40/2 21/48/2 19/49/2
f 8/50/5 20/51/5 19/52/5 21/53/5
f 22/54/6 2/55/6 7/39/6 20/46/6
f 5/56/5 22/57/5 20/51/5 8/50/5
f 24/58/6 2/55/6 22/54/6 23/59/6
f 25/60/5 23/61/5 22/57/5 5/56/5
f 4/62/4 24/63/4 23/64/4 25/65/4
f 2/55/6 24/58/6 26/66/6 14/32/6
f 24/63/4 4/62/4 27/67/4 26/68/4
f 14/32/6 26/66/6 28/69/6 29/33/6
f 26/68/4 27/67/4 30/70/4 28/71/4
f 30/72/1 31/73/1 29/74/1 28/75/1
f 27/12/3 3/11/3 31/29/3 30/76/3
f 29/74/1 31/73/1 11/77/1 15/78/1
f 15/78/1 11/77/1 32/79/1 17/80/1
f 33/81/3 37/82/3 40/83/3 34/84/3
f 33/85/7 34/86/7 68/87/7 35/88/7
f 36/89/8 33/90/8 35/91/8 67/92/8
f 33/90/5 36/89/5 38/93/5 37/94/5
f 37/94/5 38/93/5 55/95/5 39/96/5
f 37/82/3 39/97/3 41/98/3 40/83/3
f 40/99/1 41/100/1 43/101/1 42/102/1
f 34/103/1 40/99/1 42/102/1 45/104/1
f 42/102/9 43/101/9 54/105/9 44/106/9
f 45/104/9 42/102/9 44/106/9 47/107/9
f 34/103/10 45/104/10 46/108/10 68/109/10
f 46/110/11 45/111/11 47/112/11 48/113/11
f 47/112/12 49/114/12 50/115/12 48/113/12
f 47/112/6 44/116/6 51/117/6 49/114/6
f 36/118/13 67/119/13 50/115/13 49/114/13
f 38/93/14 36/89/14 49/120/14 51/121/14
f 55/95/14 38/93/14 51/121/14 52/122/14
f 44/116/6 54/123/6 52/124/6 51/117/6
f 56/125/14 55/95/14 52/122/14 53/126/14
f 54/123/6 63/127/6 53/128/6 52/124/6
f 39/96/5 55/95/5 56/125/5 57/129/5
f 57/129/15 56/125/15 58/130/15 59/131/15
f 58/130/16 56/125/16 53/126/16 61/132/16
f 60/133/17 66/134/17 59/135/17 58/136/17
f 60/137/18 58/138/18 61/139/18 62/140/18
f 53/128/19 63/127/19 62/140/19 61/139/19
f 64/141/20 60/142/20 62/143/20 63/144/20
f 43/101/9 64/141/9 63/144/9 54/105/9
f 41/100/1 65/145/1 64/141/1 43/101/1
f 64/141/21 65/145/21 66/146/21 60/142/21
f 65/147/22 57/148/22 59/149/22 66/150/22
f 39/97/3 57/148/3 65/147/3 41/98/3
f 67/119/23 46/110/23 48/113/23 50/115/23
f 68/87/4 46/151/4 67/152/4 35/88/4
