# Blender 4.1.1
# www.blender.org
o window_f
v 0.044806 -0.583787 0.534938
v 0.044806 -0.583787 -0.539741
v -0.044805 -0.583787 0.534938
v 0.044806 -0.464732 0.732279
v -0.044805 -0.464732 0.732279
v 0.044806 0.454285 0.732279
v 0.044806 -0.464732 -0.731217
v -0.044805 -0.464732 -0.731217
v 0.044806 0.454284 -0.731217
v 0.044806 0.594233 -0.630117
v -0.044805 0.454284 -0.731217
v -0.044805 0.594233 -0.630117
v -0.044805 0.454285 0.732279
v -0.044805 0.594234 0.632796
v 0.044806 0.594234 0.632796
v -0.044805 -0.583787 -0.539741
vn 1.0000 -0.0000 -0.0000
vn -0.0000 -1.0000 -0.0000
vn -0.0000 -0.8562 0.5166
vn -0.0000 -0.0000 1.0000
vn -0.0000 -0.8492 -0.5280
vn -0.0000 -0.0000 -1.0000
vn -0.0000 0.5856 -0.8106
vn -1.0000 -0.0000 -0.0000
vn -0.0000 0.5794 0.8151
vn -0.0000 1.0000 -0.0000
vt 0.867977 0.852290
vt 0.867977 0.839650
vt 0.869377 0.837398
vt 0.869377 0.854612
vt 0.791255 0.690917
vt 0.791255 0.703555
vt 0.790201 0.703555
vt 0.790201 0.690917
vt 0.791255 0.705904
vt 0.790201 0.705904
vt 0.734214 0.920155
vt 0.733161 0.920155
vt 0.733161 0.909346
vt 0.734214 0.909346
vt 0.880178 0.837397
vt 0.880178 0.854611
vt 0.790201 0.688694
vt 0.791255 0.688694
vt 0.928244 0.452001
vt 0.927190 0.452001
vt 0.927190 0.441194
vt 0.928244 0.441194
vt 0.881823 0.838586
vt 0.881823 0.853441
vt 0.927190 0.439575
vt 0.928244 0.439575
vt 0.871223 0.605267
vt 0.871223 0.622481
vt 0.869578 0.621311
vt 0.869578 0.606456
vt 0.882024 0.605267
vt 0.882024 0.622481
vt 0.733161 0.907708
vt 0.734214 0.907708
vt 0.773682 0.828484
vt 0.773682 0.843339
vt 0.772628 0.843339
vt 0.772628 0.828484
vt 0.883424 0.607519
vt 0.883424 0.620160
s 1
f 1/1/1 2/2/1 7/3/1 4/4/1
f 2/5/2 1/6/2 3/7/2 16/8/2
f 3/7/3 1/6/3 4/9/3 5/10/3
f 5/11/4 4/12/4 6/13/4 13/14/4
f 4/4/1 7/3/1 9/15/1 6/16/1
f 2/5/5 16/8/5 8/17/5 7/18/5
f 7/19/6 8/20/6 11/21/6 9/22/6
f 6/16/1 9/15/1 10/23/1 15/24/1
f 9/22/7 11/21/7 12/25/7 10/26/7
f 11/27/8 13/28/8 14/29/8 12/30/8
f 8/31/8 5/32/8 13/28/8 11/27/8
f 13/14/9 6/13/9 15/33/9 14/34/9
f 12/35/10 14/36/10 15/37/10 10/38/10
f 16/39/8 3/40/8 5/32/8 8/31/8
